<mxfile host="Electron" agent="Mozilla/5.0 (Windows NT 10.0; Win64; x64) AppleWebKit/537.36 (KHTML, like Gecko) draw.io/24.7.17 Chrome/128.0.6613.36 Electron/32.0.1 Safari/537.36" version="24.7.17">
  <diagram name="Страница — 1" id="mMOBICxIkNKmUAw4Ev73">
    <mxGraphModel dx="1036" dy="606" grid="1" gridSize="10" guides="1" tooltips="1" connect="1" arrows="1" fold="1" page="1" pageScale="1" pageWidth="827" pageHeight="1169" math="0" shadow="0">
      <root>
        <mxCell id="0" />
        <mxCell id="1" parent="0" />
        <mxCell id="7bioH_nd2V7KPUp3CB42-1" value="ДПП&lt;div&gt;Pm_ExpectedPay&lt;/div&gt;" style="rounded=1;whiteSpace=wrap;html=1;" parent="1" vertex="1">
          <mxGeometry x="80" y="100" width="120" height="60" as="geometry" />
        </mxCell>
        <mxCell id="7bioH_nd2V7KPUp3CB42-7" style="edgeStyle=orthogonalEdgeStyle;rounded=0;orthogonalLoop=1;jettySize=auto;html=1;entryX=1;entryY=0.5;entryDx=0;entryDy=0;dashed=1;" parent="1" source="7bioH_nd2V7KPUp3CB42-2" target="7bioH_nd2V7KPUp3CB42-1" edge="1">
          <mxGeometry relative="1" as="geometry" />
        </mxCell>
        <mxCell id="7bioH_nd2V7KPUp3CB42-2" value="График платежей&lt;div&gt;Stm_PaySchedule&lt;/div&gt;" style="rounded=1;whiteSpace=wrap;html=1;" parent="1" vertex="1">
          <mxGeometry x="240" y="180" width="120" height="60" as="geometry" />
        </mxCell>
        <mxCell id="7bioH_nd2V7KPUp3CB42-8" style="edgeStyle=orthogonalEdgeStyle;rounded=0;orthogonalLoop=1;jettySize=auto;html=1;entryX=1;entryY=0.5;entryDx=0;entryDy=0;dashed=1;" parent="1" source="7bioH_nd2V7KPUp3CB42-3" target="7bioH_nd2V7KPUp3CB42-2" edge="1">
          <mxGeometry relative="1" as="geometry" />
        </mxCell>
        <mxCell id="7bioH_nd2V7KPUp3CB42-10" style="edgeStyle=orthogonalEdgeStyle;rounded=0;orthogonalLoop=1;jettySize=auto;html=1;entryX=1;entryY=0.5;entryDx=0;entryDy=0;dashed=1;" parent="1" source="7bioH_nd2V7KPUp3CB42-3" target="7bioH_nd2V7KPUp3CB42-4" edge="1">
          <mxGeometry relative="1" as="geometry" />
        </mxCell>
        <mxCell id="7bioH_nd2V7KPUp3CB42-3" value="Распределение графика платежей по контировке объекта для услуг&lt;div&gt;Stm_PayScheduleObjDistr&lt;/div&gt;" style="rounded=1;whiteSpace=wrap;html=1;" parent="1" vertex="1">
          <mxGeometry x="300" y="265" width="160" height="90" as="geometry" />
        </mxCell>
        <mxCell id="7bioH_nd2V7KPUp3CB42-4" value="Контировка объекта&lt;div&gt;Bbb_ObjDistr&lt;/div&gt;" style="rounded=1;whiteSpace=wrap;html=1;" parent="1" vertex="1">
          <mxGeometry x="240" y="380" width="120" height="60" as="geometry" />
        </mxCell>
        <mxCell id="7bioH_nd2V7KPUp3CB42-5" value="Объект баланса&lt;div&gt;Pm_BalObj&lt;/div&gt;" style="rounded=1;whiteSpace=wrap;html=1;fillColor=#d5e8d4;strokeColor=#82b366;" parent="1" vertex="1">
          <mxGeometry x="520" y="280" width="120" height="60" as="geometry" />
        </mxCell>
        <mxCell id="jbhbq6dylC6eMSWyse1I-1" value="Позиция вх.акта/прих.накладной&lt;div&gt;Stm_ActInDet&lt;/div&gt;" style="rounded=1;whiteSpace=wrap;html=1;" parent="1" vertex="1">
          <mxGeometry x="70" y="420" width="120" height="60" as="geometry" />
        </mxCell>
        <mxCell id="jbhbq6dylC6eMSWyse1I-2" value="Входящий акт/ Приходная накладная&lt;div&gt;Stm_ActIn&lt;span style=&quot;white-space: pre;&quot;&gt;&#x9;&lt;/span&gt;&lt;/div&gt;" style="rounded=1;whiteSpace=wrap;html=1;" parent="1" vertex="1">
          <mxGeometry x="70" y="510" width="120" height="60" as="geometry" />
        </mxCell>
        <mxCell id="jbhbq6dylC6eMSWyse1I-5" style="edgeStyle=orthogonalEdgeStyle;rounded=0;orthogonalLoop=1;jettySize=auto;html=1;dashed=1;exitX=0;exitY=0.5;exitDx=0;exitDy=0;entryX=1;entryY=0.5;entryDx=0;entryDy=0;" parent="1" source="7bioH_nd2V7KPUp3CB42-4" target="jbhbq6dylC6eMSWyse1I-1" edge="1">
          <mxGeometry relative="1" as="geometry">
            <mxPoint x="440" y="450" as="sourcePoint" />
            <mxPoint x="200" y="451" as="targetPoint" />
          </mxGeometry>
        </mxCell>
        <mxCell id="jbhbq6dylC6eMSWyse1I-6" style="edgeStyle=orthogonalEdgeStyle;rounded=0;orthogonalLoop=1;jettySize=auto;html=1;dashed=1;exitX=0.5;exitY=1;exitDx=0;exitDy=0;" parent="1" source="jbhbq6dylC6eMSWyse1I-1" edge="1">
          <mxGeometry relative="1" as="geometry">
            <mxPoint x="310" y="520" as="sourcePoint" />
            <mxPoint x="130" y="510" as="targetPoint" />
          </mxGeometry>
        </mxCell>
        <mxCell id="jbhbq6dylC6eMSWyse1I-9" value="Взаиморасчет (ЗА, ФО, Аванс, ВЗ, ...)&lt;br&gt;&lt;div&gt;Pm_PayMove&lt;/div&gt;" style="rounded=1;whiteSpace=wrap;html=1;" parent="1" vertex="1">
          <mxGeometry x="680" y="340" width="120" height="60" as="geometry" />
        </mxCell>
        <mxCell id="jbhbq6dylC6eMSWyse1I-10" style="edgeStyle=orthogonalEdgeStyle;rounded=0;orthogonalLoop=1;jettySize=auto;html=1;entryX=1;entryY=0.5;entryDx=0;entryDy=0;exitX=0;exitY=0.5;exitDx=0;exitDy=0;" parent="1" source="7bioH_nd2V7KPUp3CB42-5" target="7bioH_nd2V7KPUp3CB42-3" edge="1">
          <mxGeometry relative="1" as="geometry">
            <mxPoint x="700" y="110" as="sourcePoint" />
            <mxPoint x="350" y="-110" as="targetPoint" />
            <Array as="points">
              <mxPoint x="520" y="310" />
              <mxPoint x="520" y="310" />
            </Array>
          </mxGeometry>
        </mxCell>
        <mxCell id="jbhbq6dylC6eMSWyse1I-11" value="Проводки БУ/НУ&lt;br&gt;&lt;div&gt;Асt_Trans&lt;/div&gt;" style="rounded=1;whiteSpace=wrap;html=1;fillColor=#fff2cc;strokeColor=#d6b656;" parent="1" vertex="1">
          <mxGeometry x="460" y="430" width="120" height="60" as="geometry" />
        </mxCell>
        <mxCell id="jbhbq6dylC6eMSWyse1I-12" style="edgeStyle=orthogonalEdgeStyle;rounded=0;orthogonalLoop=1;jettySize=auto;html=1;entryX=0.75;entryY=1;entryDx=0;entryDy=0;dashed=1;exitX=0.5;exitY=0;exitDx=0;exitDy=0;strokeColor=#FF3333;" parent="1" source="jbhbq6dylC6eMSWyse1I-11" target="7bioH_nd2V7KPUp3CB42-3" edge="1">
          <mxGeometry relative="1" as="geometry">
            <mxPoint x="440" y="450" as="sourcePoint" />
            <mxPoint x="480" y="475" as="targetPoint" />
          </mxGeometry>
        </mxCell>
        <mxCell id="jbhbq6dylC6eMSWyse1I-13" style="edgeStyle=orthogonalEdgeStyle;rounded=0;orthogonalLoop=1;jettySize=auto;html=1;exitX=1;exitY=0.5;exitDx=0;exitDy=0;entryX=0.25;entryY=0;entryDx=0;entryDy=0;" parent="1" source="jbhbq6dylC6eMSWyse1I-11" target="jbhbq6dylC6eMSWyse1I-42" edge="1">
          <mxGeometry relative="1" as="geometry">
            <mxPoint x="580" y="575" as="sourcePoint" />
            <mxPoint x="560" y="470" as="targetPoint" />
          </mxGeometry>
        </mxCell>
        <mxCell id="jbhbq6dylC6eMSWyse1I-14" style="edgeStyle=orthogonalEdgeStyle;rounded=0;orthogonalLoop=1;jettySize=auto;html=1;entryX=1;entryY=0.5;entryDx=0;entryDy=0;exitX=0.5;exitY=0;exitDx=0;exitDy=0;strokeColor=#FF0000;" parent="1" source="jbhbq6dylC6eMSWyse1I-9" target="7bioH_nd2V7KPUp3CB42-5" edge="1">
          <mxGeometry relative="1" as="geometry">
            <mxPoint x="780" y="250" as="sourcePoint" />
            <mxPoint x="720" y="250" as="targetPoint" />
            <Array as="points">
              <mxPoint x="740" y="310" />
            </Array>
          </mxGeometry>
        </mxCell>
        <mxCell id="jbhbq6dylC6eMSWyse1I-15" value="Заявка на платеж" style="rounded=1;whiteSpace=wrap;html=1;" parent="1" vertex="1">
          <mxGeometry x="440" y="90" width="120" height="60" as="geometry" />
        </mxCell>
        <mxCell id="jbhbq6dylC6eMSWyse1I-16" value="Исходяший ПП" style="rounded=1;whiteSpace=wrap;html=1;" parent="1" vertex="1">
          <mxGeometry x="610" y="90" width="120" height="60" as="geometry" />
        </mxCell>
        <mxCell id="jbhbq6dylC6eMSWyse1I-17" style="edgeStyle=orthogonalEdgeStyle;rounded=0;orthogonalLoop=1;jettySize=auto;html=1;entryX=0.5;entryY=0;entryDx=0;entryDy=0;exitX=0.5;exitY=1;exitDx=0;exitDy=0;" parent="1" source="jbhbq6dylC6eMSWyse1I-16" target="7bioH_nd2V7KPUp3CB42-5" edge="1">
          <mxGeometry relative="1" as="geometry">
            <mxPoint x="670" y="160" as="sourcePoint" />
            <mxPoint x="680" y="220" as="targetPoint" />
            <Array as="points">
              <mxPoint x="670" y="220" />
              <mxPoint x="580" y="220" />
            </Array>
          </mxGeometry>
        </mxCell>
        <mxCell id="jbhbq6dylC6eMSWyse1I-19" style="edgeStyle=orthogonalEdgeStyle;rounded=0;orthogonalLoop=1;jettySize=auto;html=1;entryX=0.712;entryY=-0.014;entryDx=0;entryDy=0;dashed=1;entryPerimeter=0;exitX=0.5;exitY=0;exitDx=0;exitDy=0;" parent="1" source="jbhbq6dylC6eMSWyse1I-15" target="7bioH_nd2V7KPUp3CB42-1" edge="1">
          <mxGeometry relative="1" as="geometry">
            <mxPoint x="450" y="175" as="sourcePoint" />
            <mxPoint x="430" y="120" as="targetPoint" />
            <Array as="points">
              <mxPoint x="500" y="70" />
              <mxPoint x="165" y="70" />
              <mxPoint x="165" y="99" />
            </Array>
          </mxGeometry>
        </mxCell>
        <mxCell id="jbhbq6dylC6eMSWyse1I-21" style="edgeStyle=orthogonalEdgeStyle;rounded=0;orthogonalLoop=1;jettySize=auto;html=1;dashed=1;exitX=0.454;exitY=0.05;exitDx=0;exitDy=0;exitPerimeter=0;entryX=0.5;entryY=0;entryDx=0;entryDy=0;" parent="1" source="jbhbq6dylC6eMSWyse1I-16" target="7bioH_nd2V7KPUp3CB42-1" edge="1">
          <mxGeometry relative="1" as="geometry">
            <mxPoint x="1009" y="100" as="sourcePoint" />
            <mxPoint x="130" y="90" as="targetPoint" />
            <Array as="points">
              <mxPoint x="665" y="50" />
              <mxPoint x="140" y="50" />
            </Array>
          </mxGeometry>
        </mxCell>
        <mxCell id="jbhbq6dylC6eMSWyse1I-22" style="edgeStyle=orthogonalEdgeStyle;rounded=0;orthogonalLoop=1;jettySize=auto;html=1;entryX=1;entryY=0.5;entryDx=0;entryDy=0;dashed=1;exitX=0;exitY=0.5;exitDx=0;exitDy=0;" parent="1" source="jbhbq6dylC6eMSWyse1I-16" target="jbhbq6dylC6eMSWyse1I-15" edge="1">
          <mxGeometry relative="1" as="geometry">
            <mxPoint x="520" y="225" as="sourcePoint" />
            <mxPoint x="500" y="170" as="targetPoint" />
          </mxGeometry>
        </mxCell>
        <mxCell id="jbhbq6dylC6eMSWyse1I-30" value="Документ корректировки" style="rounded=1;whiteSpace=wrap;html=1;" parent="1" vertex="1">
          <mxGeometry x="730" y="440" width="120" height="60" as="geometry" />
        </mxCell>
        <mxCell id="jbhbq6dylC6eMSWyse1I-31" style="edgeStyle=orthogonalEdgeStyle;rounded=0;orthogonalLoop=1;jettySize=auto;html=1;entryX=0.5;entryY=0;entryDx=0;entryDy=0;" parent="1" source="jbhbq6dylC6eMSWyse1I-9" target="jbhbq6dylC6eMSWyse1I-30" edge="1">
          <mxGeometry relative="1" as="geometry">
            <mxPoint x="950" y="400" as="sourcePoint" />
            <mxPoint x="850" y="370" as="targetPoint" />
            <Array as="points">
              <mxPoint x="740" y="420" />
              <mxPoint x="790" y="420" />
            </Array>
          </mxGeometry>
        </mxCell>
        <mxCell id="jbhbq6dylC6eMSWyse1I-32" value="Акт взаимозачета" style="rounded=1;whiteSpace=wrap;html=1;" parent="1" vertex="1">
          <mxGeometry x="880" y="380" width="120" height="60" as="geometry" />
        </mxCell>
        <mxCell id="jbhbq6dylC6eMSWyse1I-33" style="edgeStyle=orthogonalEdgeStyle;rounded=0;orthogonalLoop=1;jettySize=auto;html=1;entryX=0;entryY=0.5;entryDx=0;entryDy=0;exitX=1;exitY=0.5;exitDx=0;exitDy=0;" parent="1" source="jbhbq6dylC6eMSWyse1I-9" target="jbhbq6dylC6eMSWyse1I-32" edge="1">
          <mxGeometry relative="1" as="geometry">
            <mxPoint x="940" y="340" as="sourcePoint" />
            <mxPoint x="990" y="380" as="targetPoint" />
            <Array as="points">
              <mxPoint x="830" y="370" />
              <mxPoint x="830" y="410" />
            </Array>
          </mxGeometry>
        </mxCell>
        <mxCell id="jbhbq6dylC6eMSWyse1I-34" value="Детализация позиции ПН&lt;div&gt;Stm_ActInDetItem&lt;/div&gt;" style="rounded=1;whiteSpace=wrap;html=1;" parent="1" vertex="1">
          <mxGeometry x="20" y="330" width="120" height="60" as="geometry" />
        </mxCell>
        <mxCell id="jbhbq6dylC6eMSWyse1I-35" style="edgeStyle=orthogonalEdgeStyle;rounded=0;orthogonalLoop=1;jettySize=auto;html=1;dashed=1;exitX=0;exitY=0.5;exitDx=0;exitDy=0;entryX=0;entryY=0.5;entryDx=0;entryDy=0;" parent="1" source="jbhbq6dylC6eMSWyse1I-34" target="jbhbq6dylC6eMSWyse1I-1" edge="1">
          <mxGeometry relative="1" as="geometry">
            <mxPoint x="310" y="490" as="sourcePoint" />
            <mxPoint x="200" y="460" as="targetPoint" />
            <Array as="points">
              <mxPoint x="10" y="360" />
              <mxPoint x="10" y="450" />
            </Array>
          </mxGeometry>
        </mxCell>
        <mxCell id="jbhbq6dylC6eMSWyse1I-37" style="edgeStyle=orthogonalEdgeStyle;rounded=0;orthogonalLoop=1;jettySize=auto;html=1;dashed=1;exitX=0.5;exitY=1;exitDx=0;exitDy=0;entryX=0.667;entryY=-0.04;entryDx=0;entryDy=0;entryPerimeter=0;" parent="1" source="7bioH_nd2V7KPUp3CB42-2" target="jbhbq6dylC6eMSWyse1I-1" edge="1">
          <mxGeometry relative="1" as="geometry">
            <mxPoint x="220" y="380" as="sourcePoint" />
            <mxPoint x="180" y="300" as="targetPoint" />
            <Array as="points">
              <mxPoint x="300" y="260" />
              <mxPoint x="150" y="260" />
            </Array>
          </mxGeometry>
        </mxCell>
        <mxCell id="jbhbq6dylC6eMSWyse1I-39" value="Фиксированное распределение оплаты по объектам балансы&lt;br&gt;&lt;div&gt;Pm_PayMoveBOFixDistr&lt;/div&gt;" style="rounded=1;whiteSpace=wrap;html=1;" parent="1" vertex="1">
          <mxGeometry x="830" y="240" width="160" height="60" as="geometry" />
        </mxCell>
        <mxCell id="jbhbq6dylC6eMSWyse1I-40" style="edgeStyle=orthogonalEdgeStyle;rounded=0;orthogonalLoop=1;jettySize=auto;html=1;entryX=1;entryY=0.25;entryDx=0;entryDy=0;exitX=0.5;exitY=1;exitDx=0;exitDy=0;" parent="1" source="jbhbq6dylC6eMSWyse1I-39" target="jbhbq6dylC6eMSWyse1I-9" edge="1">
          <mxGeometry relative="1" as="geometry">
            <mxPoint x="950" y="200" as="sourcePoint" />
            <mxPoint x="1000" y="240" as="targetPoint" />
            <Array as="points">
              <mxPoint x="920" y="355" />
            </Array>
          </mxGeometry>
        </mxCell>
        <mxCell id="jbhbq6dylC6eMSWyse1I-41" style="edgeStyle=orthogonalEdgeStyle;rounded=0;orthogonalLoop=1;jettySize=auto;html=1;entryX=1;entryY=0.25;entryDx=0;entryDy=0;exitX=0;exitY=0.5;exitDx=0;exitDy=0;strokeColor=#FF0000;" parent="1" source="jbhbq6dylC6eMSWyse1I-39" target="7bioH_nd2V7KPUp3CB42-5" edge="1">
          <mxGeometry relative="1" as="geometry">
            <mxPoint x="820" y="290" as="sourcePoint" />
            <mxPoint x="720" y="260" as="targetPoint" />
            <Array as="points">
              <mxPoint x="700" y="270" />
              <mxPoint x="700" y="295" />
            </Array>
          </mxGeometry>
        </mxCell>
        <mxCell id="jbhbq6dylC6eMSWyse1I-42" value="Регистр азаиморасчетов&lt;div&gt;Pm_PayMoveReg&lt;/div&gt;" style="rounded=1;whiteSpace=wrap;html=1;fillColor=#d5e8d4;strokeColor=#82b366;" parent="1" vertex="1">
          <mxGeometry x="600" y="530" width="120" height="60" as="geometry" />
        </mxCell>
        <mxCell id="jbhbq6dylC6eMSWyse1I-44" style="edgeStyle=orthogonalEdgeStyle;rounded=0;orthogonalLoop=1;jettySize=auto;html=1;exitX=0.5;exitY=0;exitDx=0;exitDy=0;entryX=0.32;entryY=0.003;entryDx=0;entryDy=0;entryPerimeter=0;" parent="1" source="jbhbq6dylC6eMSWyse1I-39" target="7bioH_nd2V7KPUp3CB42-1" edge="1">
          <mxGeometry relative="1" as="geometry">
            <mxPoint x="1377" y="339" as="sourcePoint" />
            <mxPoint x="130" y="60" as="targetPoint" />
            <Array as="points">
              <mxPoint x="910" y="20" />
              <mxPoint x="118" y="20" />
            </Array>
          </mxGeometry>
        </mxCell>
        <mxCell id="jbhbq6dylC6eMSWyse1I-45" value="&lt;div&gt;Bs_Acc&lt;/div&gt;&lt;div&gt;Бухгалтерский счет&lt;/div&gt;" style="rounded=1;whiteSpace=wrap;html=1;fillColor=#e1d5e7;strokeColor=#9673a6;" parent="1" vertex="1">
          <mxGeometry x="435" y="170" width="130" height="60" as="geometry" />
        </mxCell>
        <mxCell id="jbhbq6dylC6eMSWyse1I-46" style="edgeStyle=orthogonalEdgeStyle;rounded=0;orthogonalLoop=1;jettySize=auto;html=1;entryX=0.5;entryY=1;entryDx=0;entryDy=0;exitX=0.25;exitY=0;exitDx=0;exitDy=0;" parent="1" source="7bioH_nd2V7KPUp3CB42-5" target="jbhbq6dylC6eMSWyse1I-45" edge="1">
          <mxGeometry relative="1" as="geometry">
            <mxPoint x="640" y="410" as="sourcePoint" />
            <mxPoint x="690" y="450" as="targetPoint" />
            <Array as="points">
              <mxPoint x="550" y="250" />
              <mxPoint x="500" y="250" />
            </Array>
          </mxGeometry>
        </mxCell>
        <mxCell id="9FFd7gmOQ-FON3ouPG9q-2" style="edgeStyle=orthogonalEdgeStyle;rounded=0;orthogonalLoop=1;jettySize=auto;html=1;dashed=1;exitX=0;exitY=0.75;exitDx=0;exitDy=0;entryX=0.5;entryY=0;entryDx=0;entryDy=0;strokeColor=#33FF33;" parent="1" source="7bioH_nd2V7KPUp3CB42-2" target="jbhbq6dylC6eMSWyse1I-34" edge="1">
          <mxGeometry relative="1" as="geometry">
            <mxPoint x="380" y="280" as="sourcePoint" />
            <mxPoint x="210" y="460" as="targetPoint" />
            <Array as="points">
              <mxPoint x="80" y="225" />
            </Array>
          </mxGeometry>
        </mxCell>
        <mxCell id="9FFd7gmOQ-FON3ouPG9q-3" style="edgeStyle=orthogonalEdgeStyle;rounded=0;orthogonalLoop=1;jettySize=auto;html=1;entryX=0.75;entryY=0;entryDx=0;entryDy=0;dashed=1;exitX=0;exitY=0.5;exitDx=0;exitDy=0;" parent="1" edge="1">
          <mxGeometry relative="1" as="geometry">
            <mxPoint x="300" y="308.0000000000001" as="sourcePoint" />
            <mxPoint x="160" y="417.9999999999999" as="targetPoint" />
          </mxGeometry>
        </mxCell>
        <mxCell id="9FFd7gmOQ-FON3ouPG9q-4" style="edgeStyle=orthogonalEdgeStyle;rounded=0;orthogonalLoop=1;jettySize=auto;html=1;entryX=0.5;entryY=1;entryDx=0;entryDy=0;exitX=0.5;exitY=0;exitDx=0;exitDy=0;" parent="1" source="jbhbq6dylC6eMSWyse1I-42" target="7bioH_nd2V7KPUp3CB42-5" edge="1">
          <mxGeometry relative="1" as="geometry">
            <mxPoint x="690" y="470" as="sourcePoint" />
            <mxPoint x="630" y="470" as="targetPoint" />
            <Array as="points">
              <mxPoint x="660" y="370" />
              <mxPoint x="580" y="370" />
            </Array>
          </mxGeometry>
        </mxCell>
        <mxCell id="80YZjWOn6L-D7gpMRrAc-1" style="edgeStyle=orthogonalEdgeStyle;rounded=0;orthogonalLoop=1;jettySize=auto;html=1;entryX=0.167;entryY=0;entryDx=0;entryDy=0;entryPerimeter=0;dashed=1;" edge="1" parent="1" source="7bioH_nd2V7KPUp3CB42-5" target="7bioH_nd2V7KPUp3CB42-1">
          <mxGeometry relative="1" as="geometry">
            <Array as="points">
              <mxPoint x="600" y="30" />
              <mxPoint x="100" y="30" />
            </Array>
          </mxGeometry>
        </mxCell>
      </root>
    </mxGraphModel>
  </diagram>
</mxfile>
